<?xml version="1.0" standalone="no"?>
<!DOCTYPE svg PUBLIC "-//W3C//DTD SVG 20010904//EN"
 "http://www.w3.org/TR/2001/REC-SVG-20010904/DTD/svg10.dtd">
<svg version="1.0" xmlns="http://www.w3.org/2000/svg"
 width="500.000000pt" height="500.000000pt" viewBox="0 0 500.000000 500.000000"
 preserveAspectRatio="xMidYMid meet">
<metadata>
Created by potrace 1.14, written by Peter Selinger 2001-2017
</metadata>
<g transform="translate(0.000000,500.000000) scale(0.100000,-0.100000)"
fill="#000000" stroke="none">
<path d="M1950 3924 c0 -565 0 -576 -21 -605 -39 -55 -88 -175 -104 -258 -37
-183 16 -375 174 -625 33 -54 61 -100 61 -102 0 -2 -63 -4 -140 -4 -134 0
-140 -1 -154 -22 -14 -22 -224 -523 -252 -602 -11 -29 -11 -42 -3 -52 10 -12
177 -14 990 -14 957 0 978 0 984 19 4 13 -41 134 -127 343 l-133 323 -148 3
c-81 1 -147 4 -147 6 0 2 22 36 49 77 111 169 182 337 197 462 l7 57 80 0 80
0 -6 83 c-3 47 -17 118 -32 167 -100 317 -380 547 -712 585 l-63 7 0 -75 0
-75 -70 -4 -70 -3 0 198 0 197 -75 0 -75 0 0 -217 -1 -218 -74 -41 -75 -42 0
504 0 504 -70 0 -70 0 0 -576z m695 -399 c108 -28 183 -72 271 -160 93 -93
145 -185 170 -307 57 -264 -67 -520 -488 -1009 -51 -60 -97 -107 -103 -105
-30 8 -306 345 -407 496 -209 315 -247 535 -133 768 56 112 189 242 292 284
121 49 283 62 398 33z m-459 -1347 c32 -40 99 -120 148 -176 50 -57 102 -117
116 -133 14 -16 35 -29 46 -29 22 0 139 127 294 317 l75 93 154 -3 154 -2 109
-263 c60 -145 108 -266 105 -268 -2 -2 -405 -3 -895 -2 l-891 3 38 90 c20 50
70 170 110 268 l73 177 153 0 153 0 58 -72z"/>
<path d="M2373 3406 c-177 -43 -311 -184 -349 -368 -51 -244 101 -495 340
-563 179 -52 399 17 504 157 126 168 145 345 57 531 -92 193 -328 297 -552
243z"/>
<path d="M1660 3555 l0 -625 70 0 70 0 0 625 0 625 -70 0 -70 0 0 -625z"/>
<path d="M722 1403 l2 -138 5 115 6 114 58 -112 c32 -62 61 -112 65 -112 4 0
31 45 60 100 29 55 57 102 63 105 5 4 9 -36 9 -99 0 -88 3 -106 15 -106 13 0
15 22 15 135 0 106 -3 135 -13 135 -8 0 -40 -48 -71 -107 -32 -60 -61 -111
-65 -115 -4 -4 -33 44 -66 107 -33 63 -66 115 -72 115 -10 0 -13 -33 -11 -137z"/>
<path d="M1111 1483 c18 -32 38 -67 46 -78 7 -11 13 -45 13 -77 0 -51 2 -58
20 -58 18 0 20 7 20 58 0 32 6 66 13 77 36 53 77 135 68 135 -5 0 -24 -26 -42
-57 -52 -93 -48 -92 -91 -14 -29 51 -45 71 -59 71 -19 0 -18 -4 12 -57z"/>
<path d="M1510 1405 c0 -128 1 -135 20 -135 19 0 20 7 20 135 0 128 -1 135
-20 135 -19 0 -20 -7 -20 -135z"/>
<path d="M1650 1405 c0 -128 1 -135 20 -135 18 0 20 7 20 55 l0 55 45 0 c57 0
95 32 95 80 0 19 -9 40 -25 55 -21 22 -33 25 -90 25 l-65 0 0 -135z m117 107
c41 -26 30 -99 -19 -116 -46 -16 -58 -3 -58 64 l0 60 33 0 c17 0 37 -4 44 -8z"/>
<path d="M1860 1536 c0 -20 111 -261 121 -261 13 0 123 254 114 263 -9 9 -14
-2 -59 -114 l-44 -108 -17 39 c-9 22 -30 73 -47 113 -22 54 -35 72 -49 72 -10
0 -19 -2 -19 -4z"/>
<path d="M2199 1445 l-66 -100 54 -3 53 -3 0 -34 c0 -24 5 -35 15 -35 10 0 15
10 15 31 0 23 5 32 22 37 21 5 21 6 2 12 -16 6 -20 19 -24 101 l-5 94 -66
-100z m41 -30 l0 -65 -40 0 c-22 0 -40 2 -40 5 0 6 74 125 77 125 2 0 3 -29 3
-65z"/>
<path d="M2569 1493 c-62 -143 -90 -216 -85 -221 4 -3 14 13 23 36 l16 42 69
0 69 0 17 -40 c11 -26 23 -40 36 -40 21 0 24 -9 -49 148 -32 67 -62 122 -67
122 -5 0 -18 -21 -29 -47z m54 -63 l26 -60 -55 0 c-30 0 -54 3 -54 7 0 15 44
113 50 113 4 0 18 -27 33 -60z"/>
<path d="M2800 1405 l0 -135 58 0 c69 0 118 23 149 69 28 42 29 86 3 129 -31
50 -75 72 -147 72 l-63 0 0 -135z m151 87 c26 -23 33 -38 37 -80 4 -49 2 -54
-31 -87 -30 -30 -42 -35 -81 -35 l-46 0 0 115 0 115 45 0 c35 0 52 -6 76 -28z"/>
<path d="M3090 1405 l0 -135 60 0 c77 0 124 20 150 62 41 68 14 165 -55 194
-19 8 -62 14 -95 14 l-60 0 0 -135z m153 94 c34 -26 50 -83 36 -131 -13 -50
-54 -78 -113 -78 l-46 0 0 115 0 115 49 0 c34 0 56 -6 74 -21z"/>
<path d="M3380 1405 c0 -128 1 -135 20 -135 18 0 20 7 20 60 0 53 2 60 20 60
12 0 32 -17 50 -42 51 -71 59 -78 87 -77 25 0 26 1 8 10 -11 5 -37 34 -57 63
l-37 53 25 11 c51 24 51 102 -1 122 -15 6 -51 10 -81 10 l-54 0 0 -135z m124
99 c37 -36 6 -94 -51 -94 l-33 0 0 55 0 55 34 0 c19 0 42 -7 50 -16z"/>
<path d="M3660 1405 l0 -135 85 0 c50 0 85 4 85 10 0 6 -30 10 -70 10 l-71 0
3 58 3 57 60 6 60 6 -62 1 -63 2 0 50 0 50 70 0 c40 0 70 4 70 10 0 6 -35 10
-85 10 l-85 0 0 -135z"/>
<path d="M3892 1517 c-43 -45 -24 -84 57 -119 82 -35 103 -72 59 -102 -36 -25
-76 -20 -108 14 -15 17 -31 30 -34 30 -14 0 -4 -22 19 -45 35 -36 115 -36 150
0 50 49 25 94 -77 139 -49 21 -58 29 -58 50 0 49 75 63 114 21 13 -13 26 -22
30 -18 3 4 -4 17 -16 30 -31 33 -105 33 -136 0z"/>
<path d="M4131 1514 c-12 -15 -21 -32 -21 -39 0 -25 42 -65 80 -76 77 -23 103
-74 54 -105 -34 -23 -95 -9 -109 24 -5 12 -15 22 -22 22 -20 0 -15 -19 12 -45
50 -51 175 -22 175 41 0 43 -17 60 -84 89 -75 32 -92 58 -56 87 31 25 67 22
94 -7 25 -27 36 -31 36 -15 0 27 -41 50 -89 50 -42 0 -53 -4 -70 -26z"/>
<path d="M1780 1099 c0 -21 -4 -28 -12 -23 -10 6 -9 3 0 -8 7 -9 12 -32 10
-50 -3 -29 -6 -33 -33 -33 -27 0 -30 4 -33 33 -2 18 3 41 10 50 12 15 11 16
-5 3 -13 -10 -17 -25 -15 -49 4 -41 25 -58 61 -48 26 6 27 9 27 81 0 41 -2 75
-5 75 -3 0 -5 -14 -5 -31z"/>
<path d="M1910 1099 c0 -21 -4 -28 -12 -23 -10 6 -9 3 0 -8 7 -9 12 -32 10
-50 -3 -29 -6 -33 -33 -33 -27 0 -30 4 -33 33 -2 18 3 40 10 49 11 14 11 15
-2 11 -19 -6 -26 -74 -9 -94 7 -8 26 -13 45 -12 l34 2 0 78 c0 43 -2 78 -5 78
-3 0 -5 -14 -5 -31z"/>
<path d="M2773 1050 c0 -47 2 -66 4 -42 2 23 2 61 0 85 -2 23 -4 4 -4 -43z"/>
<path d="M1343 1045 c0 -44 2 -61 4 -37 2 23 2 59 0 80 -2 20 -4 1 -4 -43z"/>
<path d="M1402 1043 c0 -43 3 -64 5 -46 3 23 10 33 26 36 l22 4 -22 2 c-19 1
-23 7 -23 36 0 32 2 35 30 35 36 0 49 -23 30 -54 -12 -19 -12 -20 3 -7 37 30
13 71 -40 71 l-33 0 2 -77z"/>
<path d="M1604 1085 c-7 -19 -21 -51 -29 -71 -19 -46 -19 -57 1 -21 11 21 22
27 48 27 28 0 35 -4 40 -26 4 -15 10 -24 13 -21 5 6 -47 147 -54 147 -2 0 -11
-16 -19 -35z m34 -22 c10 -31 10 -33 -14 -33 -27 0 -29 6 -14 46 12 31 13 30
28 -13z"/>
<path d="M2417 1113 c20 -4 22 -11 26 -76 l3 -72 2 72 c2 70 3 72 30 76 15 2
2 4 -28 4 -30 0 -45 -2 -33 -4z"/>
<path d="M2995 1109 c-4 -5 -4 -21 -1 -33 4 -15 0 -28 -9 -36 -18 -15 -19 -42
-3 -58 15 -15 60 -16 76 0 8 8 15 8 29 -3 16 -13 17 -12 5 3 -10 13 -11 22 -2
40 11 22 10 22 -5 3 -15 -19 -15 -19 -36 2 -20 19 -20 23 -6 43 16 23 13 50
-5 50 -7 0 -6 -5 1 -13 13 -17 -10 -54 -27 -43 -16 10 -15 43 1 49 9 4 9 6 0
6 -6 1 -15 -4 -18 -10z m58 -120 c-6 -6 -23 -9 -39 -7 -35 4 -45 35 -18 55 16
12 22 10 43 -12 18 -18 22 -28 14 -36z"/>
<path d="M1962 1021 c1 -54 2 -54 5 -11 3 24 8 50 14 56 6 7 4 11 -6 11 -12 0
-15 -13 -13 -56z"/>
<path d="M2052 1068 c-7 -7 -12 -26 -12 -43 0 -40 16 -55 55 -54 30 2 30 2 -5
8 -31 5 -35 10 -38 39 -2 18 2 40 9 48 14 17 8 19 -9 2z"/>
<path d="M2104 1064 c9 -8 14 -20 11 -25 -4 -5 -1 -9 4 -9 14 0 14 6 1 31 -6
10 -15 19 -21 19 -6 0 -3 -7 5 -16z"/>
<path d="M2153 1064 c-7 -18 20 -44 44 -44 7 0 13 -4 13 -10 0 -5 0 -13 0 -17
1 -5 -14 -11 -32 -14 l-33 -6 31 -2 c39 -1 62 22 44 44 -7 8 -18 15 -25 15 -7
0 -18 7 -26 16 -10 13 -10 17 2 25 10 6 11 9 1 9 -7 0 -15 -7 -19 -16z"/>
<path d="M2253 1064 c-7 -18 20 -44 44 -44 7 0 13 -4 13 -10 0 -5 0 -13 0 -17
1 -5 -14 -11 -32 -14 l-33 -6 31 -2 c39 -1 62 22 44 44 -7 8 -18 15 -25 15 -7
0 -18 7 -26 16 -10 13 -10 17 2 25 10 6 11 9 1 9 -7 0 -15 -7 -19 -16z"/>
<path d="M2532 1068 c-7 -7 -12 -26 -12 -43 0 -37 15 -55 46 -55 24 0 54 34
54 60 -1 8 -7 0 -15 -17 -10 -24 -20 -33 -38 -33 -39 0 -53 69 -19 89 9 6 12
11 7 11 -6 0 -16 -5 -23 -12z"/>
<path d="M2590 1065 c7 -9 15 -13 17 -11 7 7 -7 26 -19 26 -6 0 -6 -6 2 -15z"/>
<path d="M2648 1054 c-23 -50 37 -107 78 -74 28 24 12 101 -20 100 -6 0 -3 -5
7 -11 33 -19 19 -89 -19 -89 -39 0 -58 55 -28 84 8 9 11 16 4 16 -6 0 -16 -12
-22 -26z"/>
<path d="M2816 1065 c-4 -11 6 -22 29 -36 46 -27 45 -47 -2 -52 l-38 -4 40 1
c32 1 41 5 43 21 2 15 -7 25 -34 38 -30 15 -34 20 -24 32 7 9 8 15 2 15 -5 0
-13 -7 -16 -15z"/>
<path d="M3181 1020 l2 -55 6 48 c4 27 14 52 21 57 11 7 9 9 -8 7 -20 -1 -22
-6 -21 -57z"/>
<path d="M3253 1055 c8 -16 11 -17 15 -5 3 8 10 18 15 22 6 3 -1 5 -15 5 -23
-2 -25 -5 -15 -22z"/>
<path d="M3316 1065 c4 -8 8 -15 10 -15 2 0 4 7 4 15 0 8 -4 15 -10 15 -5 0
-7 -7 -4 -15z"/>
<path d="M3376 1064 c-10 -26 -7 -69 6 -82 7 -7 21 -12 33 -12 12 0 26 5 33
12 21 21 13 98 -10 98 -6 0 -6 -6 1 -14 7 -8 11 -30 9 -48 -3 -29 -6 -33 -33
-33 -27 0 -30 4 -33 33 -2 18 2 40 9 48 7 8 7 14 1 14 -5 0 -13 -7 -16 -16z"/>
<path d="M3502 1021 c1 -54 2 -54 5 -11 3 24 8 50 14 56 6 7 4 11 -6 11 -12 0
-15 -13 -13 -56z"/>
<path d="M3579 1053 c-16 -42 7 -78 51 -79 31 -2 31 -1 5 3 -49 7 -64 50 -32
91 6 8 6 12 -2 12 -6 0 -16 -12 -22 -27z"/>
<path d="M3636 1073 c7 -4 14 -17 17 -28 5 -16 5 -15 4 4 -1 14 -9 26 -17 28
-10 3 -11 2 -4 -4z"/>
<path d="M3333 1005 c0 -22 2 -30 4 -17 2 12 2 30 0 40 -3 9 -5 -1 -4 -23z"/>
</g>
</svg>
